<?xml version="1.0" encoding="utf-8"?>
<!-- Generator: Adobe Illustrator 19.2.1, SVG Export Plug-In . SVG Version: 6.00 Build 0)  -->
<svg version="1.1" xmlns="http://www.w3.org/2000/svg" xmlns:xlink="http://www.w3.org/1999/xlink" x="0px" y="0px" width="24px"
	 height="24px" viewBox="0 0 24 24" enable-background="new 0 0 24 24" xml:space="preserve">
<g id="Filled_Icons_1_">
	<g id="Filled_Icons">
		<path d="M11.996,0.902c-6.617,0-12,4.434-12,9.883c0,2.574,1.177,4.985,3.325,6.832l-2.41,4.81
			c-0.213,0.421,0.233,0.878,0.658,0.677l6.437-2.995c1.278,0.37,2.619,0.559,3.99,0.559c6.617,0,12-4.434,12-9.883
			C23.996,5.336,18.613,0.902,11.996,0.902z M12.79,16.807c-0.177,0.128-0.412,0.128-0.589,0c-0.233-0.169-5.706-4.187-5.706-7.367
			c0-2.214,1.639-3.537,3.223-3.537c0.951,0,2.071,0.492,2.777,1.784c0.706-1.292,1.826-1.784,2.777-1.784
			c1.584,0,3.223,1.323,3.223,3.537C18.496,12.62,13.023,16.638,12.79,16.807z"/>
	</g>
	<g id="New_icons">
	</g>
</g>
<g id="Invisible_Shape">
	<rect fill="none" width="24" height="24"/>
</g>
</svg>
