<?xml version="1.0" encoding="utf-8"?>
<!-- Generator: Adobe Illustrator 19.2.1, SVG Export Plug-In . SVG Version: 6.00 Build 0)  -->
<svg version="1.1" xmlns="http://www.w3.org/2000/svg" xmlns:xlink="http://www.w3.org/1999/xlink" x="0px" y="0px" width="24px"
	 height="24px" viewBox="0 0 24 24" enable-background="new 0 0 24 24" xml:space="preserve">
<g id="Filled_Icons_1_">
	<g id="Filled_Icons">
		<g>
			<path d="M0,23.5C0,23.776,0.225,24,0.5,24h23c0.276,0,0.5-0.224,0.5-0.5V8H0V23.5z M11.5,11.5c0-0.276,0.225-0.5,0.5-0.5h5
				c0.164,0,0.318,0.08,0.411,0.215c0.093,0.135,0.114,0.307,0.058,0.462L16.222,15H16.5c0.276,0,0.5,0.224,0.5,0.5
				S16.776,16,16.5,16h-0.653l-1.379,3.677c-0.097,0.259-0.385,0.389-0.644,0.292c-0.259-0.098-0.389-0.386-0.292-0.645L14.779,16
				H13.5c-0.275,0-0.5-0.224-0.5-0.5s0.225-0.5,0.5-0.5h1.654l1.125-3H12.5v0.5c0,0.276-0.224,0.5-0.5,0.5
				c-0.275,0-0.5-0.224-0.5-0.5V11.5z M7.853,13.854c-0.195,0.195-0.512,0.195-0.707,0c-0.195-0.195-0.195-0.512,0-0.707l2-2
				c0.143-0.144,0.357-0.188,0.545-0.108C9.879,11.115,10,11.298,10,11.5V19h1.5c0.276,0,0.5,0.224,0.5,0.5S11.776,20,11.5,20h-4
				C7.225,20,7,19.776,7,19.5S7.225,19,7.5,19H9v-6.293L7.853,13.854z"/>
			<path d="M23.5,2H20V0.5C20,0.224,19.776,0,19.5,0h-3C16.225,0,16,0.224,16,0.5V2H8V0.5C8,0.224,7.776,0,7.5,0h-3
				C4.225,0,4,0.224,4,0.5V2H0.5C0.225,2,0,2.224,0,2.5V7h24V2.5C24,2.224,23.776,2,23.5,2z M7,4H5V1h2V4z M19,4h-2V1h2V4z"/>
		</g>
	</g>
	<g id="New_icons">
	</g>
</g>
<g id="Invisible_Shape">
	<rect fill="none" width="24" height="24"/>
</g>
</svg>
