<?xml version="1.0" encoding="utf-8"?>
<!-- Generator: Adobe Illustrator 19.2.1, SVG Export Plug-In . SVG Version: 6.00 Build 0)  -->
<svg version="1.1" xmlns="http://www.w3.org/2000/svg" xmlns:xlink="http://www.w3.org/1999/xlink" x="0px" y="0px" width="24px"
	 height="24px" viewBox="0 0 24 24" enable-background="new 0 0 24 24" xml:space="preserve">
<g id="Filled_Icon">
	<g>
		<path d="M0,12.5C0,12.776,0.224,13,0.5,13H4v-1H0.5C0.224,12,0,12.224,0,12.5z"/>
		<path d="M0,14.5C0,14.776,0.224,15,0.5,15H4v-1H0.5C0.224,14,0,14.224,0,14.5z"/>
		<path d="M0,16.5C0,16.776,0.224,17,0.5,17H4v-1H0.5C0.224,16,0,16.224,0,16.5z"/>
		<path d="M0,18.5C0,18.776,0.224,19,0.5,19H4v-1H0.5C0.224,18,0,18.224,0,18.5z"/>
		<path d="M23.223,8.085L17.349,12H14v1h3.5c0.099,0,0.195-0.029,0.277-0.083l6-4c0.229-0.153,0.292-0.463,0.139-0.694
			C23.763,7.993,23.452,7.931,23.223,8.085z"/>
		<path d="M23.223,10.085L17.349,14H14v1h3.5c0.099,0,0.195-0.029,0.277-0.083l6-4c0.229-0.153,0.292-0.463,0.139-0.694
			C23.763,9.993,23.452,9.931,23.223,10.085z"/>
		<path d="M23.223,12.085L17.349,16H14v1h3.5c0.099,0,0.195-0.029,0.277-0.083l6-4c0.229-0.153,0.292-0.463,0.139-0.694
			C23.763,11.993,23.452,11.931,23.223,12.085z"/>
		<path d="M23.223,14.085L17.349,18H14v1h3.5c0.099,0,0.195-0.029,0.277-0.083l6-4c0.229-0.153,0.292-0.463,0.139-0.694
			C23.763,13.993,23.452,13.931,23.223,14.085z"/>
		<path d="M14,11h3.5c0.099,0,0.195-0.029,0.277-0.083l6-4.001C24.188,6.642,23.99,6,23.5,6h-4L14,10.5V11z"/>
		<path d="M6.5,6C6.401,6,6.305,6.029,6.223,6.084l-6,4.001C-0.19,10.357,0.008,11.001,0.5,11H4V9.75c0-0.158,0.074-0.306,0.2-0.4
			L9.167,6H6.5z"/>
		<path d="M12,5l-7,5v10h8v-9.75c0-0.158,0.074-0.306,0.2-0.4L19,5H12z M9,13.5c1.102,0,2,0.898,2,2c0,0.929-0.641,1.706-1.5,1.929
			V18c0,0.276-0.225,0.5-0.5,0.5c-0.276,0-0.5-0.224-0.5-0.5v-0.571c-0.86-0.223-1.5-1-1.5-1.929C7,15.224,7.224,15,7.5,15
			C7.775,15,8,15.224,8,15.5c0,0.551,0.448,1,1,1c0.551,0,1-0.449,1-1c0-0.551-0.449-1-1-1c-1.103,0-2-0.898-2-2
			c0-0.93,0.64-1.706,1.5-1.929V10c0-0.276,0.224-0.5,0.5-0.5c0.275,0,0.5,0.224,0.5,0.5v0.571c0.859,0.224,1.5,1,1.5,1.929
			c0,0.276-0.225,0.5-0.5,0.5c-0.276,0-0.5-0.224-0.5-0.5c0-0.551-0.449-1-1-1c-0.552,0-1,0.449-1,1C8,13.051,8.448,13.5,9,13.5z"/>
	</g>
</g>
<g id="Invisible_Shape">
	<rect fill="none" width="24" height="24"/>
</g>
</svg>
