<?xml version="1.0" encoding="utf-8"?>
<!-- Generator: Adobe Illustrator 19.2.1, SVG Export Plug-In . SVG Version: 6.00 Build 0)  -->
<svg version="1.1" xmlns="http://www.w3.org/2000/svg" xmlns:xlink="http://www.w3.org/1999/xlink" x="0px" y="0px" width="24px"
	 height="24px" viewBox="0 0 24 24" enable-background="new 0 0 24 24" xml:space="preserve">
<g id="Filled_Icon">
	<g>
		<path d="M23.5,23H23V8.5C23,8.224,22.775,8,22.5,8h-3C19.224,8,19,8.224,19,8.5V23h-2V12.5c0-0.276-0.225-0.5-0.5-0.5h-3
			c-0.276,0-0.5,0.224-0.5,0.5V23h-2v-6.5c0-0.276-0.225-0.5-0.5-0.5h-3C7.224,16,7,16.224,7,16.5V23H5v-2.5
			C5,20.224,4.775,20,4.5,20h-3C1.224,20,1,20.224,1,20.5V23H0.5C0.224,23,0,23.224,0,23.5C0,23.775,0.224,24,0.5,24h23
			c0.275,0,0.5-0.225,0.5-0.5C24,23.224,23.775,23,23.5,23z"/>
		<path d="M3.277,13.887L20.369,2.492l-0.365,2.946c-0.034,0.274,0.16,0.524,0.435,0.558c0.262,0.038,0.522-0.153,0.558-0.434
			l0.5-4.028c0.03-0.246-0.152-0.519-0.42-0.551c-0.028-0.011-3.987-0.476-4.018-0.479c-0.279-0.032-0.523,0.164-0.556,0.439
			c-0.032,0.274,0.164,0.523,0.439,0.554l2.65,0.313L2.723,13.055c-0.231,0.154-0.292,0.464-0.139,0.694
			C2.736,13.979,3.049,14.04,3.277,13.887z"/>
	</g>
</g>
<g id="Invisibla_Shape">
	<rect fill="none" width="24" height="24"/>
</g>
</svg>
