<?xml version="1.0" encoding="utf-8"?>
<!-- Generator: Adobe Illustrator 19.2.1, SVG Export Plug-In . SVG Version: 6.00 Build 0)  -->
<svg version="1.1" xmlns="http://www.w3.org/2000/svg" xmlns:xlink="http://www.w3.org/1999/xlink" x="0px" y="0px" width="24px"
	 height="24px" viewBox="0 0 24 24" enable-background="new 0 0 24 24" xml:space="preserve">
<g id="Filled_Icons">
	<g>
		<path d="M1,6.5C1,5.671,1.671,5,2.5,5H19V4.5C19,4.224,18.776,4,18.5,4H7.707L5.853,2.147C5.76,2.053,5.633,2,5.5,2h-5
			C0.224,2,0,2.224,0,2.5v14C0,16.776,0.224,17,0.5,17H1V6.5z"/>
		<path d="M3,8.5C3,7.671,3.671,7,4.5,7H21V6.5C21,6.224,20.776,6,20.5,6h-18C2.224,6,2,6.224,2,6.5v12C2,18.776,2.224,19,2.5,19H3
			V8.5z"/>
		<path d="M22.5,8h-18C4.224,8,4,8.224,4,8.5v12C4,20.776,4.224,21,4.5,21h18c0.276,0,0.5-0.224,0.5-0.5v-12
			C23,8.224,22.776,8,22.5,8z M13,18H7.5C7.224,18,7,17.776,7,17.5S7.224,17,7.5,17H13c0.276,0,0.5,0.224,0.5,0.5S13.276,18,13,18z
			 M13,15H7.5C7.224,15,7,14.776,7,14.5S7.224,14,7.5,14H13c0.276,0,0.5,0.224,0.5,0.5S13.276,15,13,15z M20,14.5
			c0,0.276-0.224,0.5-0.5,0.5S19,14.776,19,14.5V14h-1v3h1c0.276,0,0.5,0.224,0.5,0.5S19.276,18,19,18h-3
			c-0.276,0-0.5-0.224-0.5-0.5S15.724,17,16,17h1v-3h-1v0.5c0,0.276-0.224,0.5-0.5,0.5S15,14.776,15,14.5v-1
			c0-0.276,0.224-0.5,0.5-0.5h4c0.276,0,0.5,0.224,0.5,0.5V14.5z M19.5,12h-12C7.224,12,7,11.776,7,11.5S7.224,11,7.5,11h12
			c0.276,0,0.5,0.224,0.5,0.5S19.776,12,19.5,12z"/>
	</g>
</g>
<g id="Invisible_Shape">
	<rect fill="none" width="24" height="24"/>
</g>
</svg>
