<?xml version="1.0" encoding="utf-8"?>
<!-- Generator: Adobe Illustrator 19.2.0, SVG Export Plug-In . SVG Version: 6.00 Build 0)  -->
<svg version="1.1" xmlns="http://www.w3.org/2000/svg" xmlns:xlink="http://www.w3.org/1999/xlink" x="0px" y="0px" width="24px"
	 height="24px" viewBox="0 0 24 24" enable-background="new 0 0 24 24" xml:space="preserve">
<g id="Filled_Icons">
	<g>
		<g>
			<path d="M20,6.773V2.5C20,2.224,19.776,2,19.5,2h-4.727L20,6.773z"/>
		</g>
		<g>
			<g>
				<path d="M23.163,12.369L12,2.177L0.837,12.369c-0.203,0.186-0.52,0.173-0.706-0.033c-0.187-0.204-0.172-0.52,0.032-0.705
					l11.5-10.5c0.19-0.175,0.483-0.175,0.674,0l11.5,10.5c0.204,0.185,0.219,0.502,0.032,0.705
					C23.684,12.54,23.367,12.557,23.163,12.369z"/>
			</g>
		</g>
	</g>
	<path d="M12,18.5c0-3.584,2.916-6.5,6.5-6.5c0.886,0,1.73,0.179,2.5,0.502v-0.754l-9-8.216l-9,8.216V23.5C3,23.776,3.224,24,3.5,24
		h11.552C13.222,22.849,12,20.817,12,18.5z M11,8.5v-1C11,7.224,11.224,7,11.5,7h1C12.776,7,13,7.224,13,7.5v1
		C13,8.776,12.776,9,12.5,9h-1C11.224,9,11,8.776,11,8.5z"/>
	<path d="M18.5,13c-3.033,0-5.5,2.469-5.5,5.5c0,3.033,2.467,5.5,5.5,5.5s5.5-2.467,5.5-5.5C24,15.469,21.533,13,18.5,13z
		 M18.5,17.94c0.915,0,1.659,0.745,1.659,1.661c0,0.739-0.489,1.358-1.159,1.571v0.359c0,0.277-0.224,0.5-0.5,0.5
		s-0.5-0.223-0.5-0.5v-0.359c-0.67-0.213-1.159-0.832-1.159-1.571c0-0.277,0.224-0.5,0.5-0.5c0.276,0,0.5,0.223,0.5,0.5
		c0,0.363,0.296,0.657,0.659,0.657s0.659-0.294,0.659-0.657c0-0.364-0.296-0.661-0.659-0.661c-0.915,0-1.659-0.744-1.659-1.657
		c0-0.741,0.489-1.361,1.159-1.575v-0.357c0-0.275,0.224-0.5,0.5-0.5s0.5,0.225,0.5,0.5v0.357c0.67,0.214,1.159,0.834,1.159,1.575
		c0,0.275-0.224,0.5-0.5,0.5c-0.276,0-0.5-0.225-0.5-0.5c0-0.364-0.296-0.661-0.659-0.661s-0.659,0.296-0.659,0.661
		C17.841,17.645,18.137,17.94,18.5,17.94z"/>
</g>
<g id="invisible_shape">
	<rect fill="none" width="24" height="24"/>
</g>
</svg>
