<?xml version="1.0" encoding="utf-8"?>
<!-- Generator: Adobe Illustrator 19.2.1, SVG Export Plug-In . SVG Version: 6.00 Build 0)  -->
<svg version="1.1" xmlns="http://www.w3.org/2000/svg" xmlns:xlink="http://www.w3.org/1999/xlink" x="0px" y="0px" width="24px"
	 height="24px" viewBox="0 0 24 24" enable-background="new 0 0 24 24" xml:space="preserve">
<g id="Filled_Icons_1_">
	<g id="Filled_Icons">
		<path d="M23.512,2c-0.276,0-0.5,0.224-0.5,0.5v0.63l-22,6.695V9.5c0-0.276-0.225-0.5-0.5-0.5c-0.276,0-0.5,0.224-0.5,0.5v5
			c0,0.276,0.224,0.5,0.5,0.5c0.275,0,0.5-0.224,0.5-0.5v-0.325l4,1.217v2.219c0,2.206,1.794,4,4,4c2.133,0,3.877-1.681,3.988-3.788
			l10.012,3.046v0.63c0,0.276,0.224,0.5,0.5,0.5c0.275,0,0.5-0.224,0.5-0.5v-19C24.012,2.224,23.787,2,23.512,2z M12.012,17.611
			c0,1.654-1.346,3-3,3s-3-1.346-3.012-3v-1.914l6.012,1.826V17.611z"/>
	</g>
	<g id="New_icons">
	</g>
</g>
<g id="Invisible_Shape">
	<rect fill="none" width="24" height="24"/>
</g>
</svg>
