<?xml version="1.0" encoding="utf-8"?>
<!-- Generator: Adobe Illustrator 19.2.1, SVG Export Plug-In . SVG Version: 6.00 Build 0)  -->
<svg version="1.1" xmlns="http://www.w3.org/2000/svg" xmlns:xlink="http://www.w3.org/1999/xlink" x="0px" y="0px" width="24px"
	 height="24px" viewBox="0 0 24 24" enable-background="new 0 0 24 24" xml:space="preserve">
<g id="Filled_Icons_1_">
	<g id="Filled_Icons">
		<g>
			<path d="M10.5,0h-10C0.224,0,0,0.224,0,0.5v10C0,10.776,0.224,11,0.5,11h10c0.275,0,0.5-0.224,0.5-0.5v-10
				C11,0.224,10.775,0,10.5,0z"/>
			<path d="M23.5,0h-10C13.224,0,13,0.224,13,0.5v10c0,0.276,0.224,0.5,0.5,0.5h10c0.275,0,0.5-0.224,0.5-0.5v-10
				C24,0.224,23.775,0,23.5,0z"/>
			<path d="M10.5,13h-10C0.224,13,0,13.224,0,13.5v10C0,23.776,0.224,24,0.5,24h10c0.275,0,0.5-0.224,0.5-0.5v-10
				C11,13.224,10.775,13,10.5,13z"/>
			<path d="M23.5,13h-10c-0.276,0-0.5,0.224-0.5,0.5v10c0,0.276,0.224,0.5,0.5,0.5h10c0.275,0,0.5-0.224,0.5-0.5v-10
				C24,13.224,23.775,13,23.5,13z"/>
		</g>
	</g>
	<g id="New_icons">
	</g>
</g>
<g id="Invisible_Shape">
	<rect fill="none" width="24" height="24"/>
</g>
</svg>
