<?xml version="1.0" encoding="utf-8"?>
<!-- Generator: Adobe Illustrator 19.2.1, SVG Export Plug-In . SVG Version: 6.00 Build 0)  -->
<svg version="1.1" xmlns="http://www.w3.org/2000/svg" xmlns:xlink="http://www.w3.org/1999/xlink" x="0px" y="0px" width="24px"
	 height="24px" viewBox="0 0 24 24" enable-background="new 0 0 24 24" xml:space="preserve">
<g id="Filled_Icon">
	<g>
		<path d="M23.509,12.033c-0.003,0-0.006-0.002-0.009-0.002h-3.938c-0.276,0-0.5,0.224-0.5,0.5c0,0.276,0.224,0.469,0.5,0.469h2.664
			l-6.251,5.841l-4.663-3.731c-0.191-0.153-0.463-0.145-0.644,0.017l-9,8c-0.206,0.183-0.226,0.5-0.042,0.706
			c0.184,0.208,0.502,0.224,0.706,0.042l8.685-7.72l4.671,3.737c0.194,0.155,0.471,0.145,0.653-0.024L23,13.679v2.83
			c0,0.276,0.224,0.5,0.5,0.5s0.5-0.224,0.5-0.5v-3.978C24,12.271,23.776,12.036,23.509,12.033z"/>
		<path d="M9,0C4.037,0,0,4.038,0,9c0,4.049,2.688,7.479,6.373,8.606l3.631-3.227c0.546-0.486,1.361-0.507,1.934-0.05l2.388,1.91
			C16.549,14.599,18,11.969,18,9C18,4.038,13.963,0,9,0z M9,8.033c1.213,0,2.2,0.987,2.2,2.201c0,1.04-0.729,1.909-1.7,2.137v0.695
			c0,0.276-0.224,0.5-0.5,0.5s-0.5-0.224-0.5-0.5v-0.695c-0.972-0.227-1.699-1.097-1.699-2.137c0-0.276,0.224-0.5,0.5-0.5
			c0.276,0,0.5,0.224,0.5,0.5c0,0.661,0.538,1.199,1.199,1.199c0.662,0,1.2-0.538,1.2-1.199c0-0.662-0.538-1.201-1.2-1.201
			c-1.213,0-2.199-0.986-2.199-2.199c0-1.04,0.727-1.909,1.699-2.137V4c0-0.276,0.224-0.5,0.5-0.5S9.5,3.724,9.5,4v0.697
			c0.972,0.227,1.7,1.097,1.7,2.137c0,0.276-0.224,0.5-0.5,0.5s-0.5-0.224-0.5-0.5c0-0.661-0.538-1.199-1.2-1.199
			c-0.661,0-1.199,0.538-1.199,1.199S8.339,8.033,9,8.033z"/>
	</g>
</g>
<g id="Invisible_Shape">
	<rect fill="none" width="24" height="24"/>
</g>
</svg>
