<?xml version="1.0" encoding="UTF-8"?>
<svg width="153px" height="27px" viewBox="0 0 153 27" version="1.1" xmlns="http://www.w3.org/2000/svg" xmlns:xlink="http://www.w3.org/1999/xlink">
    <title>TwiddyLogoWhiteNoRibbon</title>
    <defs></defs>
    <g id="Page-1" stroke="none" stroke-width="1" fill="none" fill-rule="evenodd">
        <g id="TwiddyLogoWhiteNoRibbon" transform="translate(-1.000000, -1.000000)" fill="#FFFFFF">
            <polyline id="Fill-1" points="1.65582329 1.77593478 27.155502 1.77593478 27.155502 13.3368478 19.6731727 2.03567391 19.6731727 27.0488043 8.69991968 27.0488043 8.69991968 2.03567391 1.65582329 13.3702609 1.65582329 1.77593478"></polyline>
            <path d="M40.2663855,1.77593478 L50.6451606,1.77593478 L56.7131928,22.0242391 L55.1712851,27.1143696 L47.5358233,27.3003478 L40.2663855,1.77593478 Z M27.5327309,1.77593478 L38.6672088,1.77593478 L45.4156225,27.241087 L35.307008,27.2587391 L27.5327309,1.77593478 Z M52.5014257,1.77593478 L63.1298193,1.77593478 L57.5622691,18.0146739 L52.5014257,1.77593478 L52.5014257,1.77593478 Z" id="Fill-2"></path>
            <polygon id="Fill-3" points="64.387249 27.5046087 75.3281325 27.5046087 75.3281325 1.77593478 64.387249 1.77593478"></polygon>
            <path d="M90.2678916,1.77593478 L91.8104217,1.77593478 C97.7558233,1.77593478 102.830984,7.69004348 102.830984,14.6399565 C102.830984,18.0153043 101.681245,21.2891522 99.6338755,23.6955217 C97.6431526,26.0010217 94.6701406,27.5046087 92.0905422,27.5046087 L90.2678916,27.5046087 L90.2678916,1.77593478 Z M78.2009237,27.5046087 L88.9774699,27.5046087 L88.9774699,1.77593478 L78.2009237,1.77593478 L78.2009237,27.5046087 Z" id="Fill-4"></path>
            <path d="M117.385422,1.77593478 L118.927329,1.77593478 C124.872731,1.77593478 129.948514,7.69004348 129.948514,14.6399565 C129.948514,18.0153043 128.798775,21.2891522 126.752028,23.6955217 C124.760683,26.0010217 121.788293,27.5046087 119.208695,27.5046087 L117.385422,27.5046087 L117.385422,1.77593478 Z M105.049538,27.5046087 L115.926928,27.5046087 L115.926928,1.77593478 L105.049538,1.77593478 L105.049538,27.5046087 Z" id="Fill-5"></path>
            <path d="M127.568735,1.77593478 L139.478213,1.77593478 L146.692249,15.8856957 L146.648052,27.0317826 L135.724598,27.0317826 L135.769418,17.3167826 L127.568735,1.77593478 Z M141.193173,1.77593478 L153.407671,1.77593478 L147.568715,13.5259783 L141.193173,1.77593478 L141.193173,1.77593478 Z" id="Fill-6"></path>
        </g>
    </g>
</svg>