<?xml version="1.0" encoding="utf-8"?>
<!-- Generator: Adobe Illustrator 19.2.1, SVG Export Plug-In . SVG Version: 6.00 Build 0)  -->
<svg version="1.1" xmlns="http://www.w3.org/2000/svg" xmlns:xlink="http://www.w3.org/1999/xlink" x="0px" y="0px" width="24px"
	 height="24px" viewBox="0 0 24 24" enable-background="new 0 0 24 24" xml:space="preserve">
<g id="Filled_Icons">
	<path d="M20.062,4H3.938C1.767,4,0,5.768,0,7.939v9.121C0,19.232,1.767,21,3.938,21h16.125C22.233,21,24,19.232,24,17.06V7.939
		C24,5.768,22.233,4,20.062,4z M16.538,12.531l-6.769,4.331c-0.082,0.052-0.176,0.079-0.269,0.079c-0.083,0-0.165-0.021-0.24-0.062
		C9.1,16.792,9,16.623,9,16.441V7.779c0-0.184,0.1-0.352,0.26-0.44c0.161-0.087,0.356-0.08,0.51,0.018l6.769,4.332
		c0.144,0.092,0.231,0.25,0.231,0.421C16.769,12.281,16.682,12.439,16.538,12.531z"/>
</g>
<g id="Frames-24px">
	<rect fill="none" width="24" height="24"/>
</g>
</svg>
