<svg style="display: none;"><symbol viewBox="0 0 24 24" id="shape-bar-graph"><title>bar-graph</title> <g id="bar-graph-Filled_Icon"> <path d="M23.5,23H23V8.5C23,8.224,22.775,8,22.5,8h-3C19.224,8,19,8.224,19,8.5V23h-2v-7.5c0-0.276-0.225-0.5-0.5-0.5h-3
		c-0.276,0-0.5,0.224-0.5,0.5V23h-2v-9.5c0-0.276-0.225-0.5-0.5-0.5h-3C7.224,13,7,13.224,7,13.5V23H5v-4.5
		C5,18.224,4.775,18,4.5,18h-3C1.224,18,1,18.224,1,18.5V23H0.5C0.224,23,0,23.224,0,23.5C0,23.775,0.224,24,0.5,24h23
		c0.275,0,0.5-0.225,0.5-0.5C24,23.224,23.775,23,23.5,23z"/> </g> <g id="bar-graph-Invisibla_Shape"> <rect fill="none" width="24" height="24"/> </g> </symbol><symbol viewBox="0 0 24 24" id="shape-bubble-chat-heart"><title>bubble-chat-heart</title> <g id="bubble-chat-heart-Filled_Icons_1_"> <g id="bubble-chat-heart-Filled_Icons"> <path d="M11.996,0.902c-6.617,0-12,4.434-12,9.883c0,2.574,1.177,4.985,3.325,6.832l-2.41,4.81
			c-0.213,0.421,0.233,0.878,0.658,0.677l6.437-2.995c1.278,0.37,2.619,0.559,3.99,0.559c6.617,0,12-4.434,12-9.883
			C23.996,5.336,18.613,0.902,11.996,0.902z M12.79,16.807c-0.177,0.128-0.412,0.128-0.589,0c-0.233-0.169-5.706-4.187-5.706-7.367
			c0-2.214,1.639-3.537,3.223-3.537c0.951,0,2.071,0.492,2.777,1.784c0.706-1.292,1.826-1.784,2.777-1.784
			c1.584,0,3.223,1.323,3.223,3.537C18.496,12.62,13.023,16.638,12.79,16.807z"/> </g>  </g> <g id="bubble-chat-heart-Invisible_Shape"> <rect fill="none" width="24" height="24"/> </g> </symbol><symbol viewBox="0 0 24 24" id="shape-calendar"><title>calendar</title> <g id="calendar-Filled_Icons_1_"> <g id="calendar-Filled_Icons"> <g> <path d="M0,23.5C0,23.776,0.225,24,0.5,24h23c0.276,0,0.5-0.224,0.5-0.5V8H0V23.5z M11.5,11.5c0-0.276,0.225-0.5,0.5-0.5h5
				c0.164,0,0.318,0.08,0.411,0.215c0.093,0.135,0.114,0.307,0.058,0.462L16.222,15H16.5c0.276,0,0.5,0.224,0.5,0.5
				S16.776,16,16.5,16h-0.653l-1.379,3.677c-0.097,0.259-0.385,0.389-0.644,0.292c-0.259-0.098-0.389-0.386-0.292-0.645L14.779,16
				H13.5c-0.275,0-0.5-0.224-0.5-0.5s0.225-0.5,0.5-0.5h1.654l1.125-3H12.5v0.5c0,0.276-0.224,0.5-0.5,0.5
				c-0.275,0-0.5-0.224-0.5-0.5V11.5z M7.853,13.854c-0.195,0.195-0.512,0.195-0.707,0c-0.195-0.195-0.195-0.512,0-0.707l2-2
				c0.143-0.144,0.357-0.188,0.545-0.108C9.879,11.115,10,11.298,10,11.5V19h1.5c0.276,0,0.5,0.224,0.5,0.5S11.776,20,11.5,20h-4
				C7.225,20,7,19.776,7,19.5S7.225,19,7.5,19H9v-6.293L7.853,13.854z"/> <path d="M23.5,2H20V0.5C20,0.224,19.776,0,19.5,0h-3C16.225,0,16,0.224,16,0.5V2H8V0.5C8,0.224,7.776,0,7.5,0h-3
				C4.225,0,4,0.224,4,0.5V2H0.5C0.225,2,0,2.224,0,2.5V7h24V2.5C24,2.224,23.776,2,23.5,2z M7,4H5V1h2V4z M19,4h-2V1h2V4z"/> </g> </g>  </g> <g id="calendar-Invisible_Shape"> <rect fill="none" width="24" height="24"/> </g> </symbol><symbol viewBox="0 0 24 24" id="shape-cash"><title>cash</title> <g id="cash-Filled_Icon"> <g> <path d="M0,12.5C0,12.776,0.224,13,0.5,13H4v-1H0.5C0.224,12,0,12.224,0,12.5z"/> <path d="M0,14.5C0,14.776,0.224,15,0.5,15H4v-1H0.5C0.224,14,0,14.224,0,14.5z"/> <path d="M0,16.5C0,16.776,0.224,17,0.5,17H4v-1H0.5C0.224,16,0,16.224,0,16.5z"/> <path d="M0,18.5C0,18.776,0.224,19,0.5,19H4v-1H0.5C0.224,18,0,18.224,0,18.5z"/> <path d="M23.223,8.085L17.349,12H14v1h3.5c0.099,0,0.195-0.029,0.277-0.083l6-4c0.229-0.153,0.292-0.463,0.139-0.694
			C23.763,7.993,23.452,7.931,23.223,8.085z"/> <path d="M23.223,10.085L17.349,14H14v1h3.5c0.099,0,0.195-0.029,0.277-0.083l6-4c0.229-0.153,0.292-0.463,0.139-0.694
			C23.763,9.993,23.452,9.931,23.223,10.085z"/> <path d="M23.223,12.085L17.349,16H14v1h3.5c0.099,0,0.195-0.029,0.277-0.083l6-4c0.229-0.153,0.292-0.463,0.139-0.694
			C23.763,11.993,23.452,11.931,23.223,12.085z"/> <path d="M23.223,14.085L17.349,18H14v1h3.5c0.099,0,0.195-0.029,0.277-0.083l6-4c0.229-0.153,0.292-0.463,0.139-0.694
			C23.763,13.993,23.452,13.931,23.223,14.085z"/> <path d="M14,11h3.5c0.099,0,0.195-0.029,0.277-0.083l6-4.001C24.188,6.642,23.99,6,23.5,6h-4L14,10.5V11z"/> <path d="M6.5,6C6.401,6,6.305,6.029,6.223,6.084l-6,4.001C-0.19,10.357,0.008,11.001,0.5,11H4V9.75c0-0.158,0.074-0.306,0.2-0.4
			L9.167,6H6.5z"/> <path d="M12,5l-7,5v10h8v-9.75c0-0.158,0.074-0.306,0.2-0.4L19,5H12z M9,13.5c1.102,0,2,0.898,2,2c0,0.929-0.641,1.706-1.5,1.929
			V18c0,0.276-0.225,0.5-0.5,0.5c-0.276,0-0.5-0.224-0.5-0.5v-0.571c-0.86-0.223-1.5-1-1.5-1.929C7,15.224,7.224,15,7.5,15
			C7.775,15,8,15.224,8,15.5c0,0.551,0.448,1,1,1c0.551,0,1-0.449,1-1c0-0.551-0.449-1-1-1c-1.103,0-2-0.898-2-2
			c0-0.93,0.64-1.706,1.5-1.929V10c0-0.276,0.224-0.5,0.5-0.5c0.275,0,0.5,0.224,0.5,0.5v0.571c0.859,0.224,1.5,1,1.5,1.929
			c0,0.276-0.225,0.5-0.5,0.5c-0.276,0-0.5-0.224-0.5-0.5c0-0.551-0.449-1-1-1c-0.552,0-1,0.449-1,1C8,13.051,8.448,13.5,9,13.5z"/> </g> </g> <g id="cash-Invisible_Shape"> <rect fill="none" width="24" height="24"/> </g> </symbol><symbol viewBox="0 0 24 24" id="shape-chart"><title>chart</title> <g id="chart-Filled_Icon"> <g> <path d="M23.5,23H23V8.5C23,8.224,22.775,8,22.5,8h-3C19.224,8,19,8.224,19,8.5V23h-2V12.5c0-0.276-0.225-0.5-0.5-0.5h-3
			c-0.276,0-0.5,0.224-0.5,0.5V23h-2v-6.5c0-0.276-0.225-0.5-0.5-0.5h-3C7.224,16,7,16.224,7,16.5V23H5v-2.5
			C5,20.224,4.775,20,4.5,20h-3C1.224,20,1,20.224,1,20.5V23H0.5C0.224,23,0,23.224,0,23.5C0,23.775,0.224,24,0.5,24h23
			c0.275,0,0.5-0.225,0.5-0.5C24,23.224,23.775,23,23.5,23z"/> <path d="M3.277,13.887L20.369,2.492l-0.365,2.946c-0.034,0.274,0.16,0.524,0.435,0.558c0.262,0.038,0.522-0.153,0.558-0.434
			l0.5-4.028c0.03-0.246-0.152-0.519-0.42-0.551c-0.028-0.011-3.987-0.476-4.018-0.479c-0.279-0.032-0.523,0.164-0.556,0.439
			c-0.032,0.274,0.164,0.523,0.439,0.554l2.65,0.313L2.723,13.055c-0.231,0.154-0.292,0.464-0.139,0.694
			C2.736,13.979,3.049,14.04,3.277,13.887z"/> </g> </g> <g id="chart-Invisibla_Shape"> <rect fill="none" width="24" height="24"/> </g> </symbol><symbol viewBox="0 0 24 24" id="shape-credit-card"><title>credit-card</title> <g id="credit-card-Filled_Icon"> <g> <path d="M21.5,5h-19C1.121,5,0,6.122,0,7.5V9h24V7.5C24,6.122,22.878,5,21.5,5z"/> <path d="M0,17.5C0,18.878,1.121,20,2.5,20h19c1.378,0,2.5-1.122,2.5-2.5V10H0V17.5z M17.5,12h3c0.275,0,0.5,0.224,0.5,0.5
			c0,0.276-0.225,0.5-0.5,0.5h-3c-0.276,0-0.5-0.224-0.5-0.5C17,12.224,17.224,12,17.5,12z M3.5,12h8c0.275,0,0.5,0.224,0.5,0.5
			c0,0.276-0.225,0.5-0.5,0.5h-8C3.224,13,3,12.776,3,12.5C3,12.224,3.224,12,3.5,12z M3.5,14h3C6.775,14,7,14.224,7,14.5
			C7,14.776,6.775,15,6.5,15h-3C3.224,15,3,14.776,3,14.5C3,14.224,3.224,14,3.5,14z"/> </g> </g> <g id="credit-card-Invisible_Shape"> <rect fill="none" width="24" height="24"/> </g> </symbol><symbol viewBox="0 0 24 24" id="shape-documents"><title>documents</title> <g id="documents-Filled_Icons"> <g> <path d="M1,6.5C1,5.671,1.671,5,2.5,5H19V4.5C19,4.224,18.776,4,18.5,4H7.707L5.853,2.147C5.76,2.053,5.633,2,5.5,2h-5
			C0.224,2,0,2.224,0,2.5v14C0,16.776,0.224,17,0.5,17H1V6.5z"/> <path d="M3,8.5C3,7.671,3.671,7,4.5,7H21V6.5C21,6.224,20.776,6,20.5,6h-18C2.224,6,2,6.224,2,6.5v12C2,18.776,2.224,19,2.5,19H3
			V8.5z"/> <path d="M22.5,8h-18C4.224,8,4,8.224,4,8.5v12C4,20.776,4.224,21,4.5,21h18c0.276,0,0.5-0.224,0.5-0.5v-12
			C23,8.224,22.776,8,22.5,8z M13,18H7.5C7.224,18,7,17.776,7,17.5S7.224,17,7.5,17H13c0.276,0,0.5,0.224,0.5,0.5S13.276,18,13,18z
			 M13,15H7.5C7.224,15,7,14.776,7,14.5S7.224,14,7.5,14H13c0.276,0,0.5,0.224,0.5,0.5S13.276,15,13,15z M20,14.5
			c0,0.276-0.224,0.5-0.5,0.5S19,14.776,19,14.5V14h-1v3h1c0.276,0,0.5,0.224,0.5,0.5S19.276,18,19,18h-3
			c-0.276,0-0.5-0.224-0.5-0.5S15.724,17,16,17h1v-3h-1v0.5c0,0.276-0.224,0.5-0.5,0.5S15,14.776,15,14.5v-1
			c0-0.276,0.224-0.5,0.5-0.5h4c0.276,0,0.5,0.224,0.5,0.5V14.5z M19.5,12h-12C7.224,12,7,11.776,7,11.5S7.224,11,7.5,11h12
			c0.276,0,0.5,0.224,0.5,0.5S19.776,12,19.5,12z"/> </g> </g> <g id="documents-Invisible_Shape"> <rect fill="none" width="24" height="24"/> </g> </symbol><symbol viewBox="0 0 24 24" id="shape-house-price"><title>house-price</title> <g id="house-price-Filled_Icons"> <g> <g> <path d="M20,6.773V2.5C20,2.224,19.776,2,19.5,2h-4.727L20,6.773z"/> </g> <g> <g> <path d="M23.163,12.369L12,2.177L0.837,12.369c-0.203,0.186-0.52,0.173-0.706-0.033c-0.187-0.204-0.172-0.52,0.032-0.705
					l11.5-10.5c0.19-0.175,0.483-0.175,0.674,0l11.5,10.5c0.204,0.185,0.219,0.502,0.032,0.705
					C23.684,12.54,23.367,12.557,23.163,12.369z"/> </g> </g> </g> <path d="M12,18.5c0-3.584,2.916-6.5,6.5-6.5c0.886,0,1.73,0.179,2.5,0.502v-0.754l-9-8.216l-9,8.216V23.5C3,23.776,3.224,24,3.5,24
		h11.552C13.222,22.849,12,20.817,12,18.5z M11,8.5v-1C11,7.224,11.224,7,11.5,7h1C12.776,7,13,7.224,13,7.5v1
		C13,8.776,12.776,9,12.5,9h-1C11.224,9,11,8.776,11,8.5z"/> <path d="M18.5,13c-3.033,0-5.5,2.469-5.5,5.5c0,3.033,2.467,5.5,5.5,5.5s5.5-2.467,5.5-5.5C24,15.469,21.533,13,18.5,13z
		 M18.5,17.94c0.915,0,1.659,0.745,1.659,1.661c0,0.739-0.489,1.358-1.159,1.571v0.359c0,0.277-0.224,0.5-0.5,0.5
		s-0.5-0.223-0.5-0.5v-0.359c-0.67-0.213-1.159-0.832-1.159-1.571c0-0.277,0.224-0.5,0.5-0.5c0.276,0,0.5,0.223,0.5,0.5
		c0,0.363,0.296,0.657,0.659,0.657s0.659-0.294,0.659-0.657c0-0.364-0.296-0.661-0.659-0.661c-0.915,0-1.659-0.744-1.659-1.657
		c0-0.741,0.489-1.361,1.159-1.575v-0.357c0-0.275,0.224-0.5,0.5-0.5s0.5,0.225,0.5,0.5v0.357c0.67,0.214,1.159,0.834,1.159,1.575
		c0,0.275-0.224,0.5-0.5,0.5c-0.276,0-0.5-0.225-0.5-0.5c0-0.364-0.296-0.661-0.659-0.661s-0.659,0.296-0.659,0.661
		C17.841,17.645,18.137,17.94,18.5,17.94z"/> </g> <g id="house-price-invisible_shape"> <rect fill="none" width="24" height="24"/> </g> </symbol><symbol viewBox="0 0 24 24" id="shape-megaphone"><title>megaphone</title> <g id="megaphone-Filled_Icons_1_"> <g id="megaphone-Filled_Icons"> <path d="M23.512,2c-0.276,0-0.5,0.224-0.5,0.5v0.63l-22,6.695V9.5c0-0.276-0.225-0.5-0.5-0.5c-0.276,0-0.5,0.224-0.5,0.5v5
			c0,0.276,0.224,0.5,0.5,0.5c0.275,0,0.5-0.224,0.5-0.5v-0.325l4,1.217v2.219c0,2.206,1.794,4,4,4c2.133,0,3.877-1.681,3.988-3.788
			l10.012,3.046v0.63c0,0.276,0.224,0.5,0.5,0.5c0.275,0,0.5-0.224,0.5-0.5v-19C24.012,2.224,23.787,2,23.512,2z M12.012,17.611
			c0,1.654-1.346,3-3,3s-3-1.346-3.012-3v-1.914l6.012,1.826V17.611z"/> </g>  </g> <g id="megaphone-Invisible_Shape"> <rect fill="none" width="24" height="24"/> </g> </symbol><symbol viewBox="0 0 24 24" id="shape-menu-blocks"><title>menu-blocks</title> <g id="menu-blocks-Filled_Icons_1_"> <g id="menu-blocks-Filled_Icons"> <g> <path d="M10.5,0h-10C0.224,0,0,0.224,0,0.5v10C0,10.776,0.224,11,0.5,11h10c0.275,0,0.5-0.224,0.5-0.5v-10
				C11,0.224,10.775,0,10.5,0z"/> <path d="M23.5,0h-10C13.224,0,13,0.224,13,0.5v10c0,0.276,0.224,0.5,0.5,0.5h10c0.275,0,0.5-0.224,0.5-0.5v-10
				C24,0.224,23.775,0,23.5,0z"/> <path d="M10.5,13h-10C0.224,13,0,13.224,0,13.5v10C0,23.776,0.224,24,0.5,24h10c0.275,0,0.5-0.224,0.5-0.5v-10
				C11,13.224,10.775,13,10.5,13z"/> <path d="M23.5,13h-10c-0.276,0-0.5,0.224-0.5,0.5v10c0,0.276,0.224,0.5,0.5,0.5h10c0.275,0,0.5-0.224,0.5-0.5v-10
				C24,13.224,23.775,13,23.5,13z"/> </g> </g>  </g> <g id="menu-blocks-Invisible_Shape"> <rect fill="none" width="24" height="24"/> </g> </symbol><symbol viewBox="0 0 24 24" id="shape-rates"><title>rates</title> <g id="rates-Filled_Icon"> <g> <path d="M23.509,12.033c-0.003,0-0.006-0.002-0.009-0.002h-3.938c-0.276,0-0.5,0.224-0.5,0.5c0,0.276,0.224,0.469,0.5,0.469h2.664
			l-6.251,5.841l-4.663-3.731c-0.191-0.153-0.463-0.145-0.644,0.017l-9,8c-0.206,0.183-0.226,0.5-0.042,0.706
			c0.184,0.208,0.502,0.224,0.706,0.042l8.685-7.72l4.671,3.737c0.194,0.155,0.471,0.145,0.653-0.024L23,13.679v2.83
			c0,0.276,0.224,0.5,0.5,0.5s0.5-0.224,0.5-0.5v-3.978C24,12.271,23.776,12.036,23.509,12.033z"/> <path d="M9,0C4.037,0,0,4.038,0,9c0,4.049,2.688,7.479,6.373,8.606l3.631-3.227c0.546-0.486,1.361-0.507,1.934-0.05l2.388,1.91
			C16.549,14.599,18,11.969,18,9C18,4.038,13.963,0,9,0z M9,8.033c1.213,0,2.2,0.987,2.2,2.201c0,1.04-0.729,1.909-1.7,2.137v0.695
			c0,0.276-0.224,0.5-0.5,0.5s-0.5-0.224-0.5-0.5v-0.695c-0.972-0.227-1.699-1.097-1.699-2.137c0-0.276,0.224-0.5,0.5-0.5
			c0.276,0,0.5,0.224,0.5,0.5c0,0.661,0.538,1.199,1.199,1.199c0.662,0,1.2-0.538,1.2-1.199c0-0.662-0.538-1.201-1.2-1.201
			c-1.213,0-2.199-0.986-2.199-2.199c0-1.04,0.727-1.909,1.699-2.137V4c0-0.276,0.224-0.5,0.5-0.5S9.5,3.724,9.5,4v0.697
			c0.972,0.227,1.7,1.097,1.7,2.137c0,0.276-0.224,0.5-0.5,0.5s-0.5-0.224-0.5-0.5c0-0.661-0.538-1.199-1.2-1.199
			c-0.661,0-1.199,0.538-1.199,1.199S8.339,8.033,9,8.033z"/> </g> </g> <g id="rates-Invisible_Shape"> <rect fill="none" width="24" height="24"/> </g> </symbol><symbol viewBox="0 0 153 27" id="shape-twiddy-white-logo"><title>TwiddyLogoWhiteNoRibbon</title>   <g id="twiddy-white-logo-Page-1" stroke="none" stroke-width="1" fill="none" fill-rule="evenodd"> <g id="twiddy-white-logo-TwiddyLogoWhiteNoRibbon" transform="translate(-1.000000, -1.000000)" fill="#FFFFFF"> <polyline id="twiddy-white-logo-Fill-1" points="1.65582329 1.77593478 27.155502 1.77593478 27.155502 13.3368478 19.6731727 2.03567391 19.6731727 27.0488043 8.69991968 27.0488043 8.69991968 2.03567391 1.65582329 13.3702609 1.65582329 1.77593478"/> <path d="M40.2663855,1.77593478 L50.6451606,1.77593478 L56.7131928,22.0242391 L55.1712851,27.1143696 L47.5358233,27.3003478 L40.2663855,1.77593478 Z M27.5327309,1.77593478 L38.6672088,1.77593478 L45.4156225,27.241087 L35.307008,27.2587391 L27.5327309,1.77593478 Z M52.5014257,1.77593478 L63.1298193,1.77593478 L57.5622691,18.0146739 L52.5014257,1.77593478 L52.5014257,1.77593478 Z" id="twiddy-white-logo-Fill-2"/> <polygon id="twiddy-white-logo-Fill-3" points="64.387249 27.5046087 75.3281325 27.5046087 75.3281325 1.77593478 64.387249 1.77593478"/> <path d="M90.2678916,1.77593478 L91.8104217,1.77593478 C97.7558233,1.77593478 102.830984,7.69004348 102.830984,14.6399565 C102.830984,18.0153043 101.681245,21.2891522 99.6338755,23.6955217 C97.6431526,26.0010217 94.6701406,27.5046087 92.0905422,27.5046087 L90.2678916,27.5046087 L90.2678916,1.77593478 Z M78.2009237,27.5046087 L88.9774699,27.5046087 L88.9774699,1.77593478 L78.2009237,1.77593478 L78.2009237,27.5046087 Z" id="twiddy-white-logo-Fill-4"/> <path d="M117.385422,1.77593478 L118.927329,1.77593478 C124.872731,1.77593478 129.948514,7.69004348 129.948514,14.6399565 C129.948514,18.0153043 128.798775,21.2891522 126.752028,23.6955217 C124.760683,26.0010217 121.788293,27.5046087 119.208695,27.5046087 L117.385422,27.5046087 L117.385422,1.77593478 Z M105.049538,27.5046087 L115.926928,27.5046087 L115.926928,1.77593478 L105.049538,1.77593478 L105.049538,27.5046087 Z" id="twiddy-white-logo-Fill-5"/> <path d="M127.568735,1.77593478 L139.478213,1.77593478 L146.692249,15.8856957 L146.648052,27.0317826 L135.724598,27.0317826 L135.769418,17.3167826 L127.568735,1.77593478 Z M141.193173,1.77593478 L153.407671,1.77593478 L147.568715,13.5259783 L141.193173,1.77593478 L141.193173,1.77593478 Z" id="twiddy-white-logo-Fill-6"/> </g> </g> </symbol><symbol viewBox="0 0 24 24" id="shape-video"><title>video</title> <g id="video-Filled_Icons"> <path d="M20.062,4H3.938C1.767,4,0,5.768,0,7.939v9.121C0,19.232,1.767,21,3.938,21h16.125C22.233,21,24,19.232,24,17.06V7.939
		C24,5.768,22.233,4,20.062,4z M16.538,12.531l-6.769,4.331c-0.082,0.052-0.176,0.079-0.269,0.079c-0.083,0-0.165-0.021-0.24-0.062
		C9.1,16.792,9,16.623,9,16.441V7.779c0-0.184,0.1-0.352,0.26-0.44c0.161-0.087,0.356-0.08,0.51,0.018l6.769,4.332
		c0.144,0.092,0.231,0.25,0.231,0.421C16.769,12.281,16.682,12.439,16.538,12.531z"/> </g> <g id="video-Frames-24px"> <rect fill="none" width="24" height="24"/> </g> </symbol><symbol viewBox="0 0 24 24" id="shape-wrench"><title>wrench</title> <g id="wrench-Filled_Icons_1_"> <g id="wrench-Filled_Icons"> <path d="M23.077,3.96c-0.073-0.143-0.209-0.241-0.367-0.267c-0.158-0.026-0.318,0.027-0.431,0.14l-3.165,3.156h-1.958V4.884
			l3.087-3.166c0.111-0.115,0.161-0.274,0.136-0.431c-0.026-0.156-0.125-0.29-0.266-0.364c-0.98-0.501-2.088-0.767-3.203-0.767
			c-1.886,0-3.653,0.728-4.974,2.049c-2.075,2.075-2.64,5.169-1.46,7.804l-9.577,9.568c-0.976,0.977-0.98,2.556-0.003,3.533
			c0.976,0.976,2.554,0.979,3.531,0.002l9.566-9.568c0.894,0.4,1.875,0.608,2.858,0.608h0c1.868,0,3.623-0.726,4.944-2.048
			C23.952,9.949,24.466,6.675,23.077,3.96z"/> </g>  </g> <g id="wrench-Invisible_Shape"> <rect fill="none" width="24" height="24"/> </g> </symbol></svg>